<svg style="width:0; height:0; visibility: hidden;" xmlns="http://www.w3.org/2000/svg">
	<symbol id="caret-down"  viewbox="0 0 11 11">
		<g>
			
				<path fill-rule="evenodd" fill="currentColor"
					d="M6.393,9.841 C6.010,10.517 5.036,10.517 4.653,9.841 L0.452,2.429 C0.074,1.762 0.556,0.936 1.322,0.936 L9.725,0.936 C10.491,0.936 10.972,1.762 10.595,2.429 L6.393,9.841 Z" />
			
		</g>
	</symbol>
	<symbol id="caret-left" viewbox="0 0 11 13">
		<g>
				<path fill-rule="evenodd" fill="currentColor"
				d="M1.238,7.370 C0.562,6.986 0.562,6.013 1.238,5.630 L9.505,0.941 C10.172,0.563 10.998,1.044 10.998,1.811 L10.998,11.189 C10.998,11.956 10.172,12.437 9.505,12.059 L1.238,7.370 Z" />
		</g>
	</symbol>
	<symbol id="caret-right" viewbox="0 0 11 13">
		<g>
				
			<path fill-rule="evenodd" fill="currentColor"
				d="M10.438,5.491 C11.114,5.874 11.114,6.848 10.438,7.231 L2.297,11.845 C1.631,12.223 0.804,11.741 0.804,10.975 L0.804,1.747 C0.804,0.981 1.631,0.499 2.297,0.877 L10.438,5.491 Z" />
			
		</g>
	</symbol>
	<symbol id="angle-right" viewbox="0 0 9 15">
		<g>

				<path fill-rule="evenodd" fill="currentColor"
				d="M7.865,7.870 L0.941,14.812 C0.729,15.025 0.384,15.025 0.172,14.812 C-0.041,14.599 -0.041,14.254 0.172,14.041 L6.711,7.484 L0.172,0.928 C-0.041,0.715 -0.041,0.369 0.172,0.156 C0.384,-0.057 0.729,-0.057 0.941,0.156 L7.865,7.098 C8.077,7.311 8.077,7.657 7.865,7.870 Z" />
		
		</g>
	</symbol>
	<symbol id="color-part" viewBox="0 0 100 50">
		<g>
			<path d="M 0 50 A 50 50 0 0 1 100 50 Z" fill="currentColor"/>
		</g>
	</symbol>
	<symbol id="svg-play" viewBox="0 0 512 512">
		<g>
			<path
				d="m354.2,247.4l-135.1-92.4c-4.2-3.1-15.4-3.1-16.3,8.6v184.8c1,11.7 12.4,11.9 16.3,8.6l135.1-92.4c3.5-2.1 8.3-10.7 0-17.2zm-130.5,81.3v-145.4l106.1,72.7-106.1,72.7z"
				fill="currentColor" />
			<path
				d="M256,11C120.9,11,11,120.9,11,256s109.9,245,245,245s245-109.9,245-245S391.1,11,256,11z M256,480.1    C132.4,480.1,31.9,379.6,31.9,256S132.4,31.9,256,31.9S480.1,132.4,480.1,256S379.6,480.1,256,480.1z" fill="currentColor" />
		</g>
	</symbol>
</svg>