<svg style="width:0; height:0; visibility: hidden;" xmlns="http://www.w3.org/2000/svg">
	<symbol id="caret-down"  viewbox="0 0 11 11">
		<g>
			
				<path fill-rule="evenodd" fill="currentColor"
					d="M6.393,9.841 C6.010,10.517 5.036,10.517 4.653,9.841 L0.452,2.429 C0.074,1.762 0.556,0.936 1.322,0.936 L9.725,0.936 C10.491,0.936 10.972,1.762 10.595,2.429 L6.393,9.841 Z" />
			
		</g>
	</symbol>
	<symbol id="caret-left" viewbox="0 0 11 13">
		<g>
				<path fill-rule="evenodd" fill="currentColor"
				d="M1.238,7.370 C0.562,6.986 0.562,6.013 1.238,5.630 L9.505,0.941 C10.172,0.563 10.998,1.044 10.998,1.811 L10.998,11.189 C10.998,11.956 10.172,12.437 9.505,12.059 L1.238,7.370 Z" />
		</g>
	</symbol>
	<symbol id="caret-right" viewbox="0 0 11 13">
		<g>
				
			<path fill-rule="evenodd" fill="currentColor"
				d="M10.438,5.491 C11.114,5.874 11.114,6.848 10.438,7.231 L2.297,11.845 C1.631,12.223 0.804,11.741 0.804,10.975 L0.804,1.747 C0.804,0.981 1.631,0.499 2.297,0.877 L10.438,5.491 Z" />
			
		</g>
	</symbol>
	<symbol id="angle-right" viewbox="0 0 9 15">
		<g>

				<path fill-rule="evenodd" fill="currentColor"
				d="M7.865,7.870 L0.941,14.812 C0.729,15.025 0.384,15.025 0.172,14.812 C-0.041,14.599 -0.041,14.254 0.172,14.041 L6.711,7.484 L0.172,0.928 C-0.041,0.715 -0.041,0.369 0.172,0.156 C0.384,-0.057 0.729,-0.057 0.941,0.156 L7.865,7.098 C8.077,7.311 8.077,7.657 7.865,7.870 Z" />
		
		</g>
	</symbol>
	<symbol id="color-part" viewBox="0 0 100 50">
		<g>
			<path d="M 0 50 A 50 50 0 0 1 100 50 Z" fill="currentColor"/>
		</g>
	</symbol>
	<symbol id="svg-play" viewBox="0 0 512 512">
		<g>
			<path
				d="m354.2,247.4l-135.1-92.4c-4.2-3.1-15.4-3.1-16.3,8.6v184.8c1,11.7 12.4,11.9 16.3,8.6l135.1-92.4c3.5-2.1 8.3-10.7 0-17.2zm-130.5,81.3v-145.4l106.1,72.7-106.1,72.7z"
				fill="currentColor" />
			<path
				d="M256,11C120.9,11,11,120.9,11,256s109.9,245,245,245s245-109.9,245-245S391.1,11,256,11z M256,480.1    C132.4,480.1,31.9,379.6,31.9,256S132.4,31.9,256,31.9S480.1,132.4,480.1,256S379.6,480.1,256,480.1z" fill="currentColor" />
		</g>
	</symbol>
	<symbol id="svg-table" viewBox="0 0 30 30">
		<g>

			<path fill-rule="evenodd" stroke="#b1b1b1" stroke-width="0px"
				stroke-linecap="butt" stroke-linejoin="miter" fill="rgb(0, 0, 0)"
				d="M6.647,0.807 L2.887,0.807 C1.613,0.807 0.580,1.840 0.580,3.114 L0.580,6.878 C0.580,8.152 1.613,9.186 2.887,9.186 L6.647,9.186 C7.922,9.186 8.955,8.152 8.955,6.878 L8.955,3.114 C8.955,1.840 7.922,0.807 6.647,0.807 Z" />
			<path fill-rule="evenodd" stroke="#b1b1b1" stroke-width="0px"
				stroke-linecap="butt" stroke-linejoin="miter" fill="rgb(0, 0, 0)"
				d="M16.647,0.807 L12.887,0.807 C11.613,0.807 10.580,1.840 10.580,3.114 L10.580,6.878 C10.580,8.152 11.613,9.186 12.887,9.186 L16.647,9.186 C17.922,9.186 18.955,8.152 18.955,6.878 L18.955,3.114 C18.955,1.840 17.922,0.807 16.647,0.807 Z" />
			<path fill-rule="evenodd" stroke="#b1b1b1" stroke-width="0px"
				stroke-linecap="butt" stroke-linejoin="miter" fill="rgb(0, 0, 0)"
				d="M26.647,0.807 L22.887,0.807 C21.613,0.807 20.580,1.840 20.580,3.114 L20.580,6.878 C20.580,8.152 21.613,9.186 22.887,9.186 L26.647,9.186 C27.922,9.186 28.955,8.152 28.955,6.878 L28.955,3.114 C28.955,1.840 27.922,0.807 26.647,0.807 Z" />
			<path fill-rule="evenodd" stroke="#b1b1b1" stroke-width="0px"
				stroke-linecap="butt" stroke-linejoin="miter" fill="rgb(0, 0, 0)"
				d="M6.647,10.807 L2.887,10.807 C1.613,10.807 0.580,11.840 0.580,13.114 L0.580,16.878 C0.580,18.152 1.613,19.185 2.887,19.185 L6.647,19.185 C7.922,19.185 8.955,18.152 8.955,16.878 L8.955,13.114 C8.955,11.840 7.922,10.807 6.647,10.807 Z" />
			<path fill-rule="evenodd" stroke="#b1b1b1" stroke-width="0px"
				stroke-linecap="butt" stroke-linejoin="miter" fill="rgb(0, 0, 0)"
				d="M16.647,10.807 L12.887,10.807 C11.613,10.807 10.580,11.840 10.580,13.114 L10.580,16.878 C10.580,18.152 11.613,19.185 12.887,19.185 L16.647,19.185 C17.922,19.185 18.955,18.152 18.955,16.878 L18.955,13.114 C18.955,11.840 17.922,10.807 16.647,10.807 Z" />
			<path fill-rule="evenodd" stroke="#b1b1b1" stroke-width="0px"
				stroke-linecap="butt" stroke-linejoin="miter" fill="rgb(0, 0, 0)"
				d="M26.647,10.807 L22.887,10.807 C21.613,10.807 20.580,11.840 20.580,13.114 L20.580,16.878 C20.580,18.152 21.613,19.185 22.887,19.185 L26.647,19.185 C27.922,19.185 28.955,18.152 28.955,16.878 L28.955,13.114 C28.955,11.840 27.922,10.807 26.647,10.807 Z" />
			<path fill-rule="evenodd" stroke="#b1b1b1" stroke-width="0px"
				stroke-linecap="butt" stroke-linejoin="miter" fill="rgb(0, 0, 0)"
				d="M6.647,20.807 L2.887,20.807 C1.613,20.807 0.580,21.840 0.580,23.114 L0.580,26.878 C0.580,28.153 1.613,29.185 2.887,29.185 L6.647,29.185 C7.922,29.185 8.955,28.153 8.955,26.878 L8.955,23.114 C8.955,21.840 7.922,20.807 6.647,20.807 Z" />
			<path fill-rule="evenodd" stroke="#b1b1b1" stroke-width="0px"
				stroke-linecap="butt" stroke-linejoin="miter" fill="rgb(0, 0, 0)"
				d="M16.647,20.807 L12.887,20.807 C11.613,20.807 10.580,21.840 10.580,23.114 L10.580,26.878 C10.580,28.153 11.613,29.185 12.887,29.185 L16.647,29.185 C17.922,29.185 18.955,28.153 18.955,26.878 L18.955,23.114 C18.955,21.840 17.922,20.807 16.647,20.807 Z" />
			<path fill-rule="evenodd" stroke="#b1b1b1" stroke-width="0px"
				stroke-linecap="butt" stroke-linejoin="miter" fill="rgb(0, 0, 0)"
				d="M26.647,20.807 L22.887,20.807 C21.613,20.807 20.580,21.840 20.580,23.114 L20.580,26.878 C20.580,28.153 21.613,29.185 22.887,29.185 L26.647,29.185 C27.922,29.185 28.955,28.153 28.955,26.878 L28.955,23.114 C28.955,21.840 27.922,20.807 26.647,20.807 Z" />
	</g>
</symbol>
<symbol id="arrow" viewbox="0 0 44 16">
	<g>
		<path fill-rule="evenodd" fill="currentColor"
			d="M43.071,8.000 L41.657,9.414 L41.657,9.414 L35.993,15.078 L34.579,13.664 L39.243,9.000 L-0.000,9.000 L-0.000,7.000 L39.243,7.000 L34.579,2.336 L35.993,0.922 L41.657,6.586 L41.657,6.586 L43.071,8.000 ZM40.000,7.757 L40.000,8.243 L40.243,8.000 L40.000,7.757 Z" />
	
	</g>
</symbol>
<symbol id="svg-plus" viewbox="0 0 50 50">
	<g>

				<path fill-rule="evenodd" fill="rgb(254, 254, 254)"
					d="M25.000,0.086 C38.760,0.086 49.914,11.240 49.914,24.999 C49.914,38.759 38.760,49.914 25.000,49.914 C11.240,49.914 0.086,38.759 0.086,24.999 C0.086,11.240 11.240,0.086 25.000,0.086 Z" />
				<path fill-rule="evenodd" fill="rgb(87, 105, 214)"
					d="M39.929,26.000 L26.000,26.000 L26.000,40.172 L24.000,40.172 L24.000,26.000 L10.070,26.000 L10.070,24.000 L24.000,24.000 L24.000,9.828 L26.000,9.828 L26.000,24.000 L39.929,24.000 L39.929,26.000 Z" />
			
	</g>
</symbol>
</svg>