<svg style="width:0; height:0; visibility: hidden;" xmlns="http://www.w3.org/2000/svg">
	<symbol id="caret-down"  viewbox="0 0 11 11">
		<g>
			
				<path fill-rule="evenodd" fill="currentColor"
					d="M6.393,9.841 C6.010,10.517 5.036,10.517 4.653,9.841 L0.452,2.429 C0.074,1.762 0.556,0.936 1.322,0.936 L9.725,0.936 C10.491,0.936 10.972,1.762 10.595,2.429 L6.393,9.841 Z" />
			
		</g>
	</symbol>
	<symbol id="caret-left" viewbox="0 0 11 13">
		<g>
				<path fill-rule="evenodd" fill="currentColor"
				d="M1.238,7.370 C0.562,6.986 0.562,6.013 1.238,5.630 L9.505,0.941 C10.172,0.563 10.998,1.044 10.998,1.811 L10.998,11.189 C10.998,11.956 10.172,12.437 9.505,12.059 L1.238,7.370 Z" />
		</g>
	</symbol>
	<symbol id="caret-right" viewbox="0 0 11 13">
		<g>
				
			<path fill-rule="evenodd" fill="currentColor"
				d="M10.438,5.491 C11.114,5.874 11.114,6.848 10.438,7.231 L2.297,11.845 C1.631,12.223 0.804,11.741 0.804,10.975 L0.804,1.747 C0.804,0.981 1.631,0.499 2.297,0.877 L10.438,5.491 Z" />
			
		</g>
	</symbol>
</svg>